<svg width="53" height="53" viewBox="0 0 53 53" fill="none" xmlns="http://www.w3.org/2000/svg">
<path d="M21.1784 23.6649C21.6851 23.2979 21.9298 22.6922 21.9298 21.8593C21.9472 21.4632 21.8657 21.073 21.691 20.7177C21.5337 20.4323 21.3007 20.1935 21.0153 20.0246C20.7194 19.8451 20.3907 19.7263 20.0485 19.6751C19.6757 19.6052 19.2971 19.5703 18.9243 19.5761H14.8297V24.2182H19.2622C20.0252 24.224 20.6717 24.0376 21.1784 23.6649ZM21.8657 27.8585C21.2949 27.4217 20.5319 27.2062 19.5825 27.2062H14.8181V32.6812H19.4893C19.9261 32.6812 20.328 32.6404 20.7183 32.5589C21.0875 32.4867 21.4394 32.3443 21.755 32.1395C22.0521 31.9473 22.2909 31.6852 22.4714 31.3474C22.6462 31.0095 22.7335 30.5785 22.7335 30.0602C22.7335 29.0292 22.4423 28.3012 21.8657 27.8585ZM26.5195 0C12.1097 0 0.425781 11.6839 0.425781 26.0937C0.425781 40.5034 12.1097 52.1874 26.5195 52.1874C40.9292 52.1874 52.6131 40.5034 52.6131 26.0937C52.6131 11.6839 40.9292 0 26.5195 0ZM31.5576 16.7104H39.6187V18.6733H31.5576V16.7104ZM26.5195 32.8967C26.1424 33.6124 25.604 34.2305 24.9468 34.7023C24.2596 35.1799 23.4966 35.5293 22.687 35.7332C21.8399 35.9602 20.9661 36.0718 20.0892 36.0652H10.4439V16.1979H19.8213C20.7707 16.1979 21.6327 16.2853 22.419 16.4483C23.1995 16.6114 23.8635 16.891 24.4226 17.2696C24.976 17.6482 25.4128 18.1549 25.7215 18.784C26.0244 19.4072 26.1816 20.1877 26.1816 21.1137C26.1816 22.1156 25.9545 22.9426 25.5002 23.6124C25.04 24.2823 24.3761 24.8239 23.4733 25.2491C24.7022 25.5986 25.605 26.2218 26.1991 27.0955C26.8049 27.9808 27.1019 29.0409 27.1019 30.2873C27.1019 31.3008 26.9097 32.1686 26.5195 32.8967ZM42.7581 29.8213H32.3672C32.3672 30.9513 32.7575 32.0347 33.3458 32.6171C33.9399 33.1937 34.7902 33.4849 35.9027 33.4849C36.7065 33.4849 37.3879 33.2811 37.9704 32.8792C38.547 32.4773 38.8965 32.0521 39.0246 31.6095H42.5077C41.9485 33.3393 41.0981 34.5741 39.9449 35.3197C38.8033 36.0652 37.4054 36.438 35.7804 36.438C34.6446 36.438 33.6253 36.2516 32.7109 35.8963C31.8314 35.5526 31.0393 35.0284 30.3869 34.3528C29.7437 33.6589 29.2466 32.8429 28.925 31.9531C28.5697 30.9688 28.3949 29.932 28.4066 28.8894C28.4066 27.8119 28.5872 26.8101 28.9366 25.8782C29.6064 24.0668 30.9985 22.6165 32.775 21.8651C33.7243 21.469 34.7436 21.271 35.7746 21.2827C36.9977 21.2827 38.0578 21.5156 38.978 21.9932C39.864 22.4493 40.6332 23.103 41.2263 23.9037C41.8146 24.7016 42.2281 25.6102 42.4902 26.6354C42.7406 27.643 42.828 28.703 42.7581 29.8213ZM35.6522 24.2531C35.0232 24.2531 34.4932 24.3638 34.0855 24.5793C33.6777 24.7948 33.3399 25.0627 33.0837 25.3714C32.8396 25.6695 32.6592 26.0144 32.5536 26.3849C32.4604 26.6936 32.3964 27.0081 32.3731 27.3285H38.8091C38.7159 26.3208 38.3665 25.5753 37.9005 25.0511C37.4112 24.5327 36.6249 24.2531 35.6522 24.2531Z" fill="#73808D"/>
</svg>
