<svg width="53" height="54" viewBox="0 0 53 54" fill="none" xmlns="http://www.w3.org/2000/svg">
<circle cx="26.5195" cy="26.1731" r="26.0937" fill="#73808D"/>
<path d="M17.2824 37.0795V14.4359H25.5106C27.9769 14.4359 30.0393 14.9462 31.6977 15.9668C33.3561 16.9661 34.5999 18.3268 35.4291 20.049C36.2583 21.7499 36.6729 23.6422 36.6729 25.7258C36.6729 28.0221 36.2158 30.0206 35.3015 31.7216C34.3873 33.4225 33.0903 34.7407 31.4107 35.6762C29.7523 36.6117 27.7856 37.0795 25.5106 37.0795H17.2824ZM32.2399 25.7258C32.2399 24.2588 31.9741 22.9724 31.4426 21.8668C30.911 20.74 30.1456 19.8683 29.1463 19.2517C28.147 18.6138 26.9351 18.2949 25.5106 18.2949H21.6835V33.2205H25.5106C26.9564 33.2205 28.1789 32.9016 29.1782 32.2637C30.1775 31.6046 30.9323 30.7116 31.4426 29.5848C31.9741 28.4367 32.2399 27.1503 32.2399 25.7258Z" fill="white"/>
</svg>
