<svg width="53" height="53" viewBox="0 0 53 53" fill="none" xmlns="http://www.w3.org/2000/svg">
<path d="M35.5934 15.3941C33.8688 13.8596 31.7978 12.7661 29.558 12.2071C27.3183 11.6482 24.9764 11.6405 22.733 12.1848C23.129 12.7148 25.7326 16.2561 28.0798 20.5721C33.1762 18.6616 35.3313 15.761 35.5934 15.3941ZM28.54 28.4701C20.4614 31.2833 17.555 36.8923 17.2987 37.4165C19.7275 39.3094 22.7795 40.4394 26.0937 40.4394C28.0798 40.4394 29.9728 40.0375 31.691 39.3036C31.4755 38.0455 30.6484 33.6655 28.6332 28.4351L28.54 28.4701ZM31.3182 27.777C33.1937 32.9258 33.9567 37.1194 34.1023 37.9931C37.3175 35.8206 39.6065 32.3783 40.2413 28.3885C39.7521 28.2371 35.8089 27.0605 31.3182 27.777ZM26.0937 0C11.6839 0 0 11.6839 0 26.0937C0 40.5034 11.6839 52.1874 26.0937 52.1874C40.5034 52.1874 52.1874 40.5034 52.1874 26.0937C52.1874 11.6839 40.5034 0 26.0937 0ZM26.0937 42.8682C16.8444 42.8682 9.31917 35.343 9.31917 26.0937C9.31917 16.8444 16.8444 9.31917 26.0937 9.31917C35.343 9.31917 42.8682 16.8444 42.8682 26.0937C42.8682 35.343 35.343 42.8682 26.0937 42.8682ZM29.1865 22.7038C29.5185 23.3853 29.8388 24.0784 30.1359 24.7773C30.2407 25.022 30.3456 25.2666 30.4446 25.5171C35.209 24.9171 39.9501 25.8782 40.4219 25.9772C40.3928 22.5932 39.1813 19.4887 37.1893 17.0483C36.8806 17.4618 34.4809 20.5429 29.1865 22.7038ZM25.3132 21.4341C22.9368 17.2113 20.3799 13.6642 20.0013 13.1459C15.994 15.0388 12.9944 18.7315 12.0683 23.1756C12.709 23.1873 18.615 23.2164 25.3132 21.4341ZM27.0955 26.2393C27.2819 26.181 27.4683 26.1228 27.6605 26.0704C27.2993 25.255 26.9091 24.4395 26.5014 23.6416C19.3489 25.785 12.4003 25.6918 11.7771 25.6801C11.7713 25.8258 11.7713 25.9714 11.7713 26.117C11.7713 29.7981 13.1633 33.1588 15.4524 35.6983C15.7727 35.1391 19.7042 28.6273 27.0955 26.2393Z" fill="#000"/>
</svg>
