<svg width="53" height="74" viewBox="0 0 53 74" fill="none" xmlns="http://www.w3.org/2000/svg">
<path fill-rule="evenodd" clip-rule="evenodd" d="M16.229 35.3962C16.3725 33.5055 16.8001 32.007 17.2024 30.8755C21.0932 20.0699 32.0107 18.739 41.8708 20.6649C44.513 21.1794 48.3894 22.8617 50.674 25.3576C52.2801 27.1108 53.1157 29.2541 52.3434 31.6677C51.5112 34.3021 49.0168 36.2052 45.9268 37.4832C41.4591 39.3352 35.7545 39.8971 32.4523 39.71C28.6435 39.4931 22.8053 38.5245 17.2423 36.8379C17.2481 38.8893 17.6004 41.3408 18.6295 44.2193C19.0824 45.5003 19.929 46.8356 21.0133 48.1202C23.1057 46.6462 25.583 45.52 28.3885 44.8503C30.7476 44.2906 35.9203 44.0451 39.8003 45.1677C42.5693 45.9711 44.6684 47.4824 44.9274 49.921C45.2447 52.9499 43.6257 54.7725 41.2519 55.7643C37.9103 57.1625 33.022 56.8424 30.448 56.0485C27.4538 55.1232 23.6476 52.5412 20.883 49.5605C14.0748 54.9134 12.0682 64.3457 17.0859 72.732C17.2325 72.983 17.1495 73.3119 16.9019 73.4669C16.6455 73.6173 16.3122 73.5321 16.1657 73.2811C10.8585 64.4069 12.9663 54.4196 20.1637 48.7469C19.0129 47.3769 18.1045 45.9471 17.6196 44.5788C16.488 41.4072 16.1348 38.7235 16.1725 36.5037C15.1358 36.17 14.1128 35.81 13.1154 35.4224C8.63496 33.684 4.76615 31.4131 2.86817 28.6876C-1.51869 22.3899 0.0625639 15.2812 4.38521 9.79434C8.66852 4.36145 15.6306 0.542536 21.9802 0.702603C22.2762 0.71027 22.5133 0.958166 22.5038 1.25276C22.4942 1.54743 22.2494 1.78205 21.9535 1.7743C15.9111 1.62175 9.29723 5.28464 5.22761 10.4574C1.19728 15.5763 -0.342542 22.2017 3.74466 28.0734C5.55661 30.6659 9.24549 32.7707 13.5039 34.4236C14.3906 34.7679 15.2999 35.0905 16.229 35.3962ZM21.7331 48.9331C23.7018 47.5683 26.0166 46.5191 28.6422 45.8958C30.8875 45.3625 35.8007 45.1246 39.5058 46.199C41.8024 46.8647 43.6487 48.0092 43.8586 50.0316C44.123 52.5026 42.7692 53.9664 40.8356 54.7748C37.7296 56.0836 33.1632 55.7642 30.7616 55.0231C27.9483 54.1555 24.3478 51.7327 21.7331 48.9331ZM17.2776 35.7285C17.3973 33.8408 17.8186 32.3541 18.2123 31.2393C21.8996 20.9932 32.3192 19.8921 41.6656 21.7168C44.1267 22.195 47.7472 23.7504 49.8845 26.0818C51.2204 27.5439 51.967 29.326 51.3234 31.3444C50.5786 33.7053 48.2868 35.3483 45.521 36.495C41.2094 38.2822 35.6959 38.8185 32.5118 38.6394C28.7029 38.4226 22.8367 37.4439 17.2776 35.7285Z" fill="black"/>
<path fill-rule="evenodd" clip-rule="evenodd" d="M16.419 72.5598C16.4807 72.0165 16.6641 70.4534 16.6983 70.218C16.7981 69.5591 16.9412 69.2427 17.1228 68.9376C17.2721 68.6945 17.4599 68.4627 17.6818 67.9742C17.8012 67.7032 18.127 67.5901 18.3956 67.7139C18.6643 67.8376 18.7767 68.1541 18.6574 68.425C18.45 68.8644 18.281 69.1239 18.1299 69.3494C17.9596 69.6115 17.8386 69.8217 17.7587 70.3787C17.7173 70.6493 17.6507 72.1801 17.4799 72.8686C17.3919 73.2282 17.2234 73.4445 17.1075 73.5173C16.9418 73.6218 16.7108 73.6811 16.4158 73.6503C16.0373 73.6092 15.4762 73.4071 14.8427 73.1949C14.2477 72.994 13.5706 72.7802 12.9081 72.7296C12.3507 72.6906 11.8084 72.7716 11.3673 73.1478C11.1441 73.3412 10.8106 73.3202 10.6164 73.0965C10.4222 72.8728 10.4446 72.5323 10.6678 72.339C11.3238 71.764 12.142 71.6015 12.9879 71.6624C13.737 71.7172 14.5051 71.9486 15.1845 72.1792C15.5913 72.3151 15.9646 72.4512 16.2676 72.5307C16.3162 72.5439 16.3676 72.5518 16.419 72.5598Z" fill="black"/>
</svg>
