<svg width="70" height="70" viewBox="0 0 70 70" fill="none" xmlns="http://www.w3.org/2000/svg">
<rect width="70" height="70" rx="35" fill="white"/>
<path d="M33.2424 48.4272L20.5297 35.8247C20.3371 35.6337 20.2004 35.4269 20.1195 35.2041C20.0386 34.9813 19.9987 34.7426 20 34.488C20 34.2334 20.0405 33.9948 20.1214 33.772C20.2023 33.5492 20.3384 33.3423 20.5297 33.1514L33.2424 20.5489C33.5955 20.1988 34.0373 20.0162 34.5676 20.0009C35.0979 19.9856 35.5551 20.1683 35.939 20.5489C36.3242 20.899 36.5252 21.3369 36.5419 21.8626C36.5586 22.3884 36.3737 22.8415 35.9872 23.2222L26.549 32.5786H48.0738C48.6196 32.5786 49.0774 32.7619 49.4472 33.1285C49.817 33.4951 50.0013 33.9483 50 34.488C50 35.029 49.8157 35.4829 49.4472 35.8495C49.0786 36.2161 48.6209 36.3988 48.0738 36.3975H26.549L35.9872 45.7539C36.3403 46.104 36.5252 46.5495 36.5419 47.0905C36.5586 47.6315 36.3737 48.0771 35.9872 48.4272C35.634 48.8091 35.1846 49 34.6389 49C34.0931 49 33.6276 48.8091 33.2424 48.4272Z" fill="black"/>
</svg>
