<svg width="1999" height="1084" viewBox="0 0 1999 1084" fill="none" xmlns="http://www.w3.org/2000/svg">
<path d="M41.3362 56.6301C76.6987 35.4126 146.893 26.3953 144.771 160.065C142.65 293.736 91.7275 785.981 179.25 854.938C261.467 907.557 319.285 926.547 317.164 693.155C315.042 459.762 244.831 199.848 317.164 120.283C379.048 52.2099 503.347 -35.1354 505.469 160.065C507.59 355.266 506.353 658.676 505.469 785.981M500.673 107.634C511.79 242.845 449.773 795.263 537.295 864.22C619.513 916.839 677.331 935.829 675.209 702.437C673.087 469.044 602.877 209.13 675.209 129.565C737.093 61.4918 861.392 -25.8536 863.514 169.347C865.636 364.548 864.398 667.958 863.514 795.263M865.143 152.782C876.26 287.993 814.243 840.412 901.765 909.368C983.983 961.988 1041.8 980.978 1039.68 747.585C1037.56 514.193 967.347 254.279 1039.68 174.713C1101.56 106.64 1225.86 19.295 1227.98 214.496C1230.11 409.697 1228.87 713.107 1227.98 840.412M1228.93 192.848C1240.05 328.059 1178.03 880.478 1265.55 949.434C1347.77 1002.05 1405.59 1021.04 1403.47 787.651C1401.35 554.259 1331.14 294.345 1403.47 214.779C1465.35 146.706 1589.65 59.361 1591.77 254.562C1593.89 449.763 1592.66 753.173 1591.77 880.478M1593.65 253.357C1604.77 388.568 1542.75 940.987 1630.27 1009.94C1712.49 1062.56 1770.31 1081.55 1768.19 848.16C1766.06 614.768 1695.85 354.854 1768.19 275.288C1830.07 207.215 1954.37 119.87 1956.49 315.071C1958.61 510.272 1957.38 813.682 1956.49 940.987" stroke="#FAFAFA" stroke-width="80.8917" stroke-linecap="round" stroke-linejoin="round"/>
</svg>
