<svg width="71" height="70" viewBox="0 0 71 70" fill="none" xmlns="http://www.w3.org/2000/svg">
<rect width="71" height="69.8167" rx="12.5612" fill="black"/>
<mask id="path-2-inside-1_726_1900" fill="white">
<path d="M37.7713 7.93101C38.2854 7.41682 39.1191 7.41683 39.6333 7.93101L43.4203 11.718C47.3329 15.6306 47.3329 21.9743 43.4203 25.8869L39.6333 29.6739C39.1191 30.1881 38.2854 30.1881 37.7713 29.6739L33.9843 25.8869C30.0716 21.9743 30.0716 15.6306 33.9843 11.718L37.7713 7.93101Z"/>
</mask>
<path d="M37.7713 7.93101C38.2854 7.41682 39.1191 7.41683 39.6333 7.93101L43.4203 11.718C47.3329 15.6306 47.3329 21.9743 43.4203 25.8869L39.6333 29.6739C39.1191 30.1881 38.2854 30.1881 37.7713 29.6739L33.9843 25.8869C30.0716 21.9743 30.0716 15.6306 33.9843 11.718L37.7713 7.93101Z" stroke="#4AB148" stroke-width="6.14433" mask="url(#path-2-inside-1_726_1900)"/>
<mask id="path-3-inside-2_726_1900" fill="white">
<path d="M50.6748 15.5744C50.6778 14.8473 50.0907 14.2554 49.3635 14.2524L46.8501 14.2421C41.3169 14.2195 36.8129 18.6867 36.7902 24.22L36.7802 26.6837C36.7772 27.4109 37.3642 28.0027 38.0914 28.0057L40.6048 28.016C46.1381 28.0387 50.642 23.5714 50.6647 18.0382L50.6748 15.5744Z"/>
</mask>
<path d="M50.6748 15.5744C50.6778 14.8473 50.0907 14.2554 49.3635 14.2524L46.8501 14.2421C41.3169 14.2195 36.8129 18.6867 36.7902 24.22L36.7802 26.6837C36.7772 27.4109 37.3642 28.0027 38.0914 28.0057L40.6048 28.016C46.1381 28.0387 50.642 23.5714 50.6647 18.0382L50.6748 15.5744Z" stroke="#4AB148" stroke-width="6.14433" mask="url(#path-3-inside-2_726_1900)"/>
<path d="M31.0478 60.6456C29.8203 60.6456 28.6529 60.4454 27.5455 60.0452C26.4382 59.6583 25.4442 59.1113 24.5636 58.4041C23.6964 57.7103 22.9893 56.8965 22.4422 55.9625L27.4855 53.521C27.8324 54.1614 28.326 54.6484 28.9665 54.9819C29.6202 55.3155 30.3273 55.4822 31.0878 55.4822C31.9017 55.4822 32.6689 55.3421 33.3893 55.062C34.1098 54.7951 34.6835 54.3882 35.1104 53.8412C35.5507 53.3075 35.7575 52.6404 35.7308 51.8399V45.5558H36.4113V28.825H41.1744V51.9199C41.1744 52.4536 41.1477 52.9539 41.0943 53.4209C41.0543 53.9012 40.9742 54.3748 40.8542 54.8418C40.5073 56.1627 39.8602 57.25 38.9129 58.1039C37.979 58.9578 36.8316 59.5916 35.4707 60.0052C34.1098 60.4321 32.6355 60.6456 31.0478 60.6456ZM30.5675 51.0394C28.5795 51.0394 26.8384 50.539 25.3441 49.5384C23.8498 48.5377 22.6824 47.1769 21.8418 45.4557C21.0146 43.7346 20.601 41.7934 20.601 39.632C20.601 37.4305 21.0213 35.4759 21.8619 33.7682C22.7157 32.047 23.9098 30.6928 25.4442 29.7055C26.9785 28.7182 28.7797 28.2246 30.8477 28.2246C32.9023 28.2246 34.6301 28.7249 36.031 29.7255C37.4319 30.7262 38.4926 32.0871 39.2131 33.8082C39.9336 35.5293 40.2938 37.4706 40.2938 39.632C40.2938 41.7934 39.9269 43.7346 39.1931 45.4557C38.4726 47.1769 37.3919 48.5377 35.951 49.5384C34.51 50.539 32.7156 51.0394 30.5675 51.0394ZM31.4481 46.1962C32.6622 46.1962 33.6295 45.9227 34.3499 45.3757C35.0838 44.8287 35.6108 44.0615 35.931 43.0742C36.2512 42.0869 36.4113 40.9395 36.4113 39.632C36.4113 38.3245 36.2512 37.177 35.931 36.1897C35.6108 35.2024 35.0971 34.4353 34.39 33.8882C33.6962 33.3412 32.7823 33.0677 31.6482 33.0677C30.4341 33.0677 29.4334 33.3679 28.6462 33.9683C27.8724 34.5553 27.2987 35.3492 26.9251 36.3498C26.5516 37.3371 26.3648 38.4312 26.3648 39.632C26.3648 40.8461 26.5449 41.9535 26.9051 42.9541C27.2654 43.9414 27.819 44.7286 28.5662 45.3156C29.3133 45.9027 30.274 46.1962 31.4481 46.1962Z" fill="white"/>
</svg>
