<svg width="28" height="26" viewBox="0 0 28 26" fill="none" xmlns="http://www.w3.org/2000/svg">
<path d="M5.83168 3.08329C5.8313 3.83473 5.53243 4.55525 5.00081 5.08634C4.46919 5.61743 3.74837 5.91558 2.99693 5.9152C2.24548 5.91483 1.52496 5.61595 0.993871 5.08434C0.462784 4.55272 0.164633 3.8319 0.165009 3.08045C0.165385 2.32901 0.464256 1.60849 0.995875 1.0774C1.52749 0.54631 2.24831 0.24816 2.99976 0.248536C3.75121 0.248911 4.47173 0.547783 5.00281 1.0794C5.5339 1.61102 5.83205 2.33184 5.83168 3.08329ZM5.91668 8.01328H0.250009V25.75H5.91668V8.01328ZM14.87 8.01328H9.23168V25.75H14.8133V16.4425C14.8133 11.2575 21.5708 10.7758 21.5708 16.4425V25.75H27.1667V14.5158C27.1667 5.77495 17.165 6.10079 14.8133 10.3933L14.87 8.01328Z" fill="black"/>
</svg>
