<svg width="162" height="35" viewBox="0 0 162 35" fill="none" xmlns="http://www.w3.org/2000/svg">
<path d="M18.3438 9.617L21.1891 6.77174C21.9129 6.04787 23.0865 6.04787 23.8104 6.77174L26.9778 9.93918C27.7017 10.663 27.7017 11.8367 26.9778 12.5605L24.1381 15.4003C23.4142 16.1242 22.2406 16.1242 21.5167 15.4003L18.3438 12.2274C17.9976 11.8812 17.5282 11.6867 17.0386 11.6867C16.5491 11.6867 16.0796 11.8812 15.7334 12.2274L12.6697 15.2911C11.9459 16.0149 10.7723 16.0149 10.0484 15.2911L7.20862 12.4513C6.48475 11.7274 6.48475 10.5538 7.20862 9.82996L10.2668 6.77174C10.9907 6.04788 12.1643 6.04787 12.8882 6.77173L15.7334 9.617C16.0796 9.96316 16.5491 10.1576 17.0386 10.1576C17.5282 10.1576 17.9976 9.96316 18.3438 9.617Z" fill="white"/>
<path d="M15.5094 21.4073L12.3419 18.2398C11.6181 17.516 10.4445 17.516 9.7206 18.2398L6.7716 21.1888C6.04774 21.9127 6.04774 23.0863 6.7716 23.8102L15.7278 32.7664C16.4517 33.4903 17.6253 33.4903 18.3492 32.7664L27.0869 24.0286C27.8108 23.3048 27.8108 22.1312 27.0869 21.4073L23.9195 18.2398C23.1956 17.516 22.022 17.516 21.2982 18.2398L18.1307 21.4073C17.4069 22.1312 16.2332 22.1312 15.5094 21.4073Z" fill="white"/>
<path d="M51.8694 21.0026C51.5654 22.1066 51.0774 23.0186 50.4054 23.7386C49.7334 24.4426 48.9334 24.9626 48.0054 25.2986C47.0774 25.6186 46.0534 25.7786 44.9334 25.7786C43.3334 25.7786 41.9494 25.4586 40.7814 24.8186C39.6134 24.1626 38.7174 23.2266 38.0934 22.0106C37.4694 20.7946 37.1574 19.3306 37.1574 17.6186C37.1574 15.9066 37.4694 14.4426 38.0934 13.2266C38.7174 12.0106 39.6134 11.0826 40.7814 10.4426C41.9494 9.78657 43.3254 9.45857 44.9094 9.45857C46.0134 9.45857 47.0294 9.61857 47.9574 9.93857C48.8854 10.2426 49.6694 10.7146 50.3094 11.3546C50.9494 11.9946 51.4054 12.8186 51.6774 13.8266L48.0534 15.2906C47.8294 14.2986 47.4614 13.6186 46.9494 13.2506C46.4534 12.8826 45.8214 12.6986 45.0534 12.6986C44.3014 12.6986 43.6454 12.8826 43.0854 13.2506C42.5414 13.6186 42.1174 14.1706 41.8134 14.9066C41.5254 15.6266 41.3814 16.5306 41.3814 17.6186C41.3814 18.6906 41.5174 19.5946 41.7894 20.3306C42.0614 21.0666 42.4694 21.6186 43.0134 21.9866C43.5734 22.3546 44.2614 22.5386 45.0774 22.5386C45.8454 22.5386 46.4934 22.3306 47.0214 21.9146C47.5654 21.4826 47.9334 20.8266 48.1254 19.9466L51.8694 21.0026ZM60.5733 17.9306C60.5733 17.3706 60.4133 16.9306 60.0933 16.6106C59.7893 16.2746 59.3733 16.1066 58.8453 16.1066C58.3173 16.1066 57.8613 16.2426 57.4773 16.5146C57.1093 16.7706 56.8533 17.2346 56.7093 17.9066L53.2533 17.0906C53.4773 15.9386 54.0693 15.0186 55.0293 14.3306C55.9893 13.6426 57.3413 13.2986 59.0853 13.2986C60.2533 13.2986 61.2453 13.4746 62.0613 13.8266C62.8933 14.1626 63.5253 14.6746 63.9573 15.3626C64.4053 16.0346 64.6293 16.8666 64.6293 17.8586V22.2506C64.6293 22.8746 64.9093 23.1866 65.4693 23.1866C65.7573 23.1866 65.9893 23.1546 66.1653 23.0906L65.9253 25.4186C65.4453 25.6426 64.8613 25.7546 64.1733 25.7546C63.5493 25.7546 62.9973 25.6586 62.5173 25.4666C62.0373 25.2586 61.6613 24.9546 61.3893 24.5546C61.1173 24.1386 60.9813 23.6186 60.9813 22.9946V22.8506L61.4373 22.6826C61.4373 23.3706 61.2293 23.9466 60.8133 24.4106C60.4133 24.8746 59.8853 25.2186 59.2293 25.4426C58.5893 25.6666 57.9173 25.7786 57.2133 25.7786C56.3973 25.7786 55.6853 25.6506 55.0773 25.3946C54.4693 25.1386 53.9973 24.7706 53.6613 24.2906C53.3413 23.7946 53.1813 23.1866 53.1813 22.4666C53.1813 21.6026 53.4373 20.8906 53.9493 20.3306C54.4773 19.7546 55.3013 19.3546 56.4213 19.1306L60.9573 18.1946L60.9333 20.3546L58.6293 20.8346C58.1493 20.9306 57.7893 21.0746 57.5493 21.2666C57.3253 21.4426 57.2133 21.7146 57.2133 22.0826C57.2133 22.4346 57.3413 22.6986 57.5973 22.8746C57.8533 23.0506 58.1573 23.1386 58.5093 23.1386C58.7813 23.1386 59.0373 23.0986 59.2773 23.0186C59.5333 22.9386 59.7573 22.8186 59.9493 22.6586C60.1413 22.4826 60.2933 22.2666 60.4053 22.0106C60.5173 21.7546 60.5733 21.4506 60.5733 21.0986V17.9306ZM67.7758 30.5786V13.5386H71.4478L71.6638 17.8826L71.1838 17.3786C71.2958 16.5786 71.5438 15.8746 71.9278 15.2666C72.3118 14.6586 72.8078 14.1786 73.4158 13.8266C74.0238 13.4746 74.7198 13.2986 75.5038 13.2986C76.4958 13.2986 77.3598 13.5466 78.0958 14.0426C78.8318 14.5226 79.3998 15.2266 79.7998 16.1546C80.2158 17.0666 80.4238 18.1786 80.4238 19.4906C80.4238 20.8026 80.2158 21.9306 79.7998 22.8746C79.3838 23.8186 78.7998 24.5386 78.0478 25.0346C77.3118 25.5306 76.4478 25.7786 75.4558 25.7786C74.3678 25.7786 73.4878 25.4586 72.8158 24.8186C72.1438 24.1626 71.6958 23.3386 71.4718 22.3466L71.8558 21.7706V30.5786H67.7758ZM74.0638 22.7786C74.7678 22.7786 75.3198 22.5226 75.7198 22.0106C76.1198 21.4826 76.3198 20.6586 76.3198 19.5386C76.3198 18.4186 76.1198 17.6026 75.7198 17.0906C75.3358 16.5626 74.7918 16.2986 74.0878 16.2986C73.6398 16.2986 73.2478 16.4266 72.9118 16.6826C72.5758 16.9226 72.3118 17.2826 72.1198 17.7626C71.9438 18.2426 71.8558 18.8346 71.8558 19.5386C71.8558 20.2106 71.9358 20.7946 72.0958 21.2906C72.2718 21.7706 72.5278 22.1386 72.8638 22.3946C73.1998 22.6506 73.5998 22.7786 74.0638 22.7786ZM84.8626 12.1466C84.0306 12.1466 83.4226 11.9946 83.0386 11.6906C82.6706 11.3706 82.4866 10.8746 82.4866 10.2026C82.4866 9.51457 82.6706 9.01857 83.0386 8.71457C83.4226 8.39457 84.0306 8.23457 84.8626 8.23457C85.6786 8.23457 86.2786 8.39457 86.6626 8.71457C87.0466 9.01857 87.2386 9.51457 87.2386 10.2026C87.2386 10.8746 87.0466 11.3706 86.6626 11.6906C86.2786 11.9946 85.6786 12.1466 84.8626 12.1466ZM86.9026 13.5386V25.5386H82.8226V13.5386H86.9026ZM94.823 9.72257V21.2666C94.823 21.8426 94.959 22.2586 95.231 22.5146C95.519 22.7546 95.911 22.8746 96.407 22.8746C96.791 22.8746 97.119 22.8346 97.391 22.7546C97.679 22.6586 97.935 22.5226 98.159 22.3466L98.591 24.8666C98.191 25.1546 97.687 25.3786 97.079 25.5386C96.471 25.6986 95.847 25.7786 95.207 25.7786C94.295 25.7786 93.503 25.6506 92.831 25.3946C92.175 25.1386 91.663 24.7306 91.295 24.1706C90.943 23.6106 90.759 22.8666 90.743 21.9386V10.8506L94.823 9.72257ZM98.399 13.5386V16.4426H88.679V13.5386H98.399ZM107.191 17.9306C107.191 17.3706 107.031 16.9306 106.711 16.6106C106.407 16.2746 105.991 16.1066 105.463 16.1066C104.935 16.1066 104.479 16.2426 104.095 16.5146C103.727 16.7706 103.471 17.2346 103.327 17.9066L99.8705 17.0906C100.095 15.9386 100.687 15.0186 101.647 14.3306C102.607 13.6426 103.959 13.2986 105.703 13.2986C106.871 13.2986 107.863 13.4746 108.679 13.8266C109.511 14.1626 110.143 14.6746 110.575 15.3626C111.023 16.0346 111.247 16.8666 111.247 17.8586V22.2506C111.247 22.8746 111.527 23.1866 112.087 23.1866C112.375 23.1866 112.607 23.1546 112.783 23.0906L112.543 25.4186C112.063 25.6426 111.479 25.7546 110.791 25.7546C110.167 25.7546 109.615 25.6586 109.135 25.4666C108.655 25.2586 108.279 24.9546 108.007 24.5546C107.735 24.1386 107.599 23.6186 107.599 22.9946V22.8506L108.055 22.6826C108.055 23.3706 107.847 23.9466 107.431 24.4106C107.031 24.8746 106.503 25.2186 105.847 25.4426C105.207 25.6666 104.535 25.7786 103.831 25.7786C103.015 25.7786 102.303 25.6506 101.695 25.3946C101.087 25.1386 100.615 24.7706 100.279 24.2906C99.9585 23.7946 99.7985 23.1866 99.7985 22.4666C99.7985 21.6026 100.055 20.8906 100.567 20.3306C101.095 19.7546 101.919 19.3546 103.039 19.1306L107.575 18.1946L107.551 20.3546L105.247 20.8346C104.767 20.9306 104.407 21.0746 104.167 21.2666C103.943 21.4426 103.831 21.7146 103.831 22.0826C103.831 22.4346 103.959 22.6986 104.215 22.8746C104.471 23.0506 104.775 23.1386 105.127 23.1386C105.399 23.1386 105.655 23.0986 105.895 23.0186C106.151 22.9386 106.375 22.8186 106.567 22.6586C106.759 22.4826 106.911 22.2666 107.023 22.0106C107.135 21.7546 107.191 21.4506 107.191 21.0986V17.9306ZM118.425 8.45057V21.4586C118.425 21.9866 118.513 22.3626 118.689 22.5866C118.865 22.8106 119.161 22.9226 119.577 22.9226C119.817 22.9226 120.017 22.9066 120.177 22.8746C120.337 22.8426 120.529 22.7946 120.753 22.7306L120.489 25.1786C120.201 25.3546 119.825 25.4986 119.361 25.6106C118.897 25.7226 118.441 25.7786 117.993 25.7786C116.713 25.7786 115.785 25.4826 115.209 24.8906C114.633 24.2986 114.345 23.3306 114.345 21.9866V8.45057H118.425ZM135.616 10.8026H126.016V16.9226H133.624V18.0506H126.016V25.5386H124.816V9.69857H135.616V10.8026ZM142.148 13.2986C143.268 13.2986 144.252 13.5466 145.1 14.0426C145.964 14.5386 146.636 15.2586 147.116 16.2026C147.612 17.1306 147.86 18.2426 147.86 19.5386C147.86 20.8346 147.612 21.9546 147.116 22.8986C146.636 23.8266 145.964 24.5386 145.1 25.0346C144.252 25.5306 143.268 25.7786 142.148 25.7786C141.028 25.7786 140.036 25.5306 139.172 25.0346C138.324 24.5386 137.652 23.8266 137.156 22.8986C136.676 21.9546 136.436 20.8346 136.436 19.5386C136.436 18.2426 136.676 17.1306 137.156 16.2026C137.652 15.2586 138.324 14.5386 139.172 14.0426C140.036 13.5466 141.028 13.2986 142.148 13.2986ZM142.148 14.3306C141.236 14.3306 140.444 14.5386 139.772 14.9546C139.1 15.3706 138.572 15.9706 138.188 16.7546C137.82 17.5226 137.636 18.4506 137.636 19.5386C137.636 20.6106 137.82 21.5386 138.188 22.3226C138.572 23.1066 139.1 23.7066 139.772 24.1226C140.444 24.5386 141.236 24.7466 142.148 24.7466C143.06 24.7466 143.852 24.5386 144.524 24.1226C145.196 23.7066 145.716 23.1066 146.084 22.3226C146.468 21.5386 146.66 20.6106 146.66 19.5386C146.66 18.4506 146.468 17.5226 146.084 16.7546C145.716 15.9706 145.196 15.3706 144.524 14.9546C143.852 14.5386 143.06 14.3306 142.148 14.3306ZM150.992 13.5386L155 18.7466L155.12 18.9146L160.208 25.5386H158.696L154.376 19.9466L154.232 19.7546L149.456 13.5386H150.992ZM159.848 13.5386L155.192 19.6586L155.048 19.7546L150.656 25.5386H149.216L154.352 18.8906L154.448 18.8426L158.408 13.5386H159.848Z" fill="white"/>
</svg>
