<svg width="71" height="70" viewBox="0 0 71 70" fill="none" xmlns="http://www.w3.org/2000/svg">
<rect width="71" height="69.8167" rx="12.5612" fill="white"/>
<path d="M32.9088 59.9206C22.4183 59.9206 15 52.2025 15 41.9368C15 31.4463 22.4183 23.9531 32.9088 23.9531C43.3244 23.9531 50.7427 31.4463 50.7427 41.9368C50.7427 52.2025 43.3244 59.9206 32.9088 59.9206ZM32.9088 49.7298C37.3298 49.7298 40.1772 46.3578 40.1772 41.9368C40.1772 37.5158 37.3298 34.2188 32.9088 34.2188C28.4129 34.2188 25.4905 37.5158 25.4905 41.9368C25.4905 46.3578 28.4129 49.7298 32.9088 49.7298Z" fill="black"/>
<path d="M54.076 19.1148C54.076 23.5965 50.4429 27.2296 45.9612 27.2296C41.4795 27.2296 37.8464 23.5965 37.8464 19.1148C37.8464 14.6331 41.4795 11 45.9612 11C50.4429 11 54.076 14.6331 54.076 19.1148Z" fill="#1A2EEB"/>
</svg>
