<svg width="146" height="146" viewBox="0 0 146 146" fill="none" xmlns="http://www.w3.org/2000/svg">
<g clip-path="url(#clip0_718_125)">
<path fill-rule="evenodd" clip-rule="evenodd" d="M61.9957 70.2351C60.4311 66.5933 59.7724 63.4028 59.4224 60.9169C56.1698 37.1298 75.1089 24.0943 95.242 18.1164C100.636 16.5117 109.446 15.8756 116.096 18.2883C120.769 19.9817 124.392 23.1437 125.297 28.3633C126.306 34.0497 123.527 39.9908 119.039 45.3502C112.555 53.1068 102.529 59.6708 96.2301 62.5212C88.9632 65.8067 77.2086 69.6645 65.2687 71.9252C67.2655 75.7205 70.2917 79.9214 74.9853 84.2583C77.0645 86.1934 79.9259 87.8477 83.1785 89.1779C85.6282 84.4211 89.1278 79.9363 93.6773 75.9792C97.5063 72.6583 106.852 67.1956 115.128 65.5191C121.036 64.327 126.388 65.0946 129.229 69.3621C132.75 74.6669 131.514 79.611 128.077 83.7467C123.239 89.5726 113.872 93.712 108.335 94.733C101.891 95.9176 92.3394 94.8187 84.3314 91.9727C76.8999 108.482 82.314 127.9 99.7297 138.58C100.244 138.903 100.409 139.593 100.1 140.12C99.7708 140.647 99.0709 140.812 98.5562 140.488C80.1318 129.185 74.3679 108.64 82.2111 91.1616C78.7527 89.7374 75.6854 87.9679 73.4621 85.9021C68.295 81.1214 65.0424 76.4912 62.9632 72.3419C60.7194 72.7273 58.4754 73.0507 56.2521 73.2981C46.2679 74.4149 36.9014 73.9531 30.7462 70.7409C16.5213 63.3199 12.5687 48.6182 15.2655 34.2673C17.9417 20.0546 27.1435 6.23869 39.0628 0.387953C39.6186 0.115601 40.2979 0.345343 40.5655 0.900341C40.8332 1.45554 40.6067 2.12727 40.0509 2.39941C28.708 7.96668 20.0003 21.1563 17.4682 34.6803C14.9568 48.0663 18.5181 61.8323 31.7755 68.7544C37.6425 71.8034 46.5149 72.1317 56.005 71.0715C57.9813 70.8508 59.9782 70.5684 61.9957 70.2351ZM85.299 89.9871C87.6252 85.5525 90.8983 81.3676 95.1596 77.6708C98.8033 74.509 107.676 69.3114 115.581 67.715C120.48 66.725 125.009 67.0579 127.356 70.6018C130.238 74.924 129.147 78.9467 126.347 82.3164C121.86 87.7484 113.09 91.5776 107.923 92.5295C101.871 93.6459 92.8541 92.6427 85.299 89.9871ZM64.2601 69.8358C62.6544 66.2223 61.9956 63.0599 61.6457 60.6132C58.5578 38.0599 76.7969 25.9321 95.8801 20.2641C100.903 18.7673 109.117 18.144 115.334 20.3944C119.225 21.8099 122.333 24.3889 123.095 28.7517C124.001 33.847 121.345 39.1098 117.331 43.912C111.073 51.3977 101.377 57.7291 95.3037 60.48C88.0369 63.766 76.2206 67.6318 64.2601 69.8358Z" fill="black"/>
<path fill-rule="evenodd" clip-rule="evenodd" d="M98.3272 138.907C97.9155 137.84 96.7421 134.767 96.5774 134.298C96.1246 132.98 96.0833 132.255 96.1245 131.514C96.1657 130.919 96.2892 130.308 96.2274 129.188C96.1863 128.571 96.6804 128.046 97.298 128.015C97.9155 127.984 98.4302 128.461 98.4714 129.079C98.5126 130.094 98.4507 130.738 98.389 131.302C98.3272 131.953 98.3066 132.459 98.6978 133.569C98.883 134.11 100.242 137.011 100.592 138.452C100.777 139.203 100.674 139.767 100.53 140.014C100.324 140.368 99.9535 140.702 99.3771 140.93C98.636 141.221 97.4008 141.389 96.0216 141.61C94.7247 141.814 93.2631 142.073 91.9868 142.62C90.9163 143.088 89.9899 143.763 89.537 144.887C89.3106 145.461 88.6724 145.745 88.096 145.519C87.5196 145.293 87.2315 144.64 87.4579 144.066C88.1166 142.365 89.4752 141.272 91.1015 140.566C92.5425 139.942 94.1894 139.627 95.6716 139.397C96.5568 139.255 97.3803 139.146 98.0185 138.999C98.1214 138.977 98.2243 138.942 98.3272 138.907Z" fill="black"/>
</g>
<defs>
<clipPath id="clip0_718_125">
<rect width="145.63" height="145.63" fill="white" transform="matrix(-1 0 0 1 145.63 0.273254)"/>
</clipPath>
</defs>
</svg>
