<svg width="28" height="25" viewBox="0 0 28 25" fill="none" xmlns="http://www.w3.org/2000/svg">
<path d="M1.21318 10.9068L12.7839 0.736645C12.9592 0.582552 13.1491 0.473146 13.3536 0.408427C13.5582 0.343708 13.7773 0.311862 14.011 0.31289C14.2448 0.31289 14.4639 0.34525 14.6685 0.409969C14.873 0.474688 15.0629 0.58358 15.2382 0.736645L26.8089 10.9068C27.1303 11.1893 27.298 11.5427 27.3121 11.9669C27.3261 12.3912 27.1584 12.7569 26.8089 13.0641C26.4875 13.3723 26.0854 13.533 25.6028 13.5464C25.1201 13.5597 24.704 13.4118 24.3545 13.1026L15.7642 5.55205L15.7642 22.7719C15.7642 23.2085 15.5959 23.5748 15.2593 23.8706C14.9227 24.1665 14.5066 24.3139 14.011 24.3129C13.5143 24.3129 13.0977 24.1654 12.7611 23.8706C12.4245 23.5758 12.2567 23.2096 12.2579 22.7719L12.2579 5.55205L3.66757 13.1026C3.34616 13.3851 2.9371 13.533 2.44038 13.5464C1.94366 13.5597 1.53459 13.4118 1.21318 13.1026C0.862558 12.8201 0.687246 12.4605 0.687246 12.0239C0.687246 11.5874 0.862558 11.215 1.21318 10.9068Z" fill="black"/>
</svg>
