<svg width="24" height="24" viewBox="0 0 24 24" fill="none" xmlns="http://www.w3.org/2000/svg">
<path d="M4.615 20C4.155 20 3.771 19.846 3.463 19.538C3.15433 19.2293 3 18.845 3 18.385V8.615C3 8.155 3.15433 7.771 3.463 7.463C3.771 7.15433 4.155 7 4.615 7H9V5.615C9 5.155 9.15433 4.771 9.463 4.463C9.771 4.15433 10.1547 4 10.614 4H13.384C13.844 4 14.2283 4.15433 14.537 4.463C14.845 4.771 14.999 5.155 14.999 5.615V7H19.384C19.844 7 20.228 7.15433 20.536 7.463C20.8447 7.771 20.999 8.155 20.999 8.615V18.385C20.999 18.845 20.845 19.229 20.537 19.537C20.2283 19.8457 19.844 20 19.384 20H4.615ZM10 7H14V5.615C14 5.46167 13.936 5.32067 13.808 5.192C13.6793 5.064 13.5383 5 13.385 5H10.615C10.4617 5 10.3207 5.064 10.192 5.192C10.064 5.32067 10 5.46167 10 5.615V7ZM20 14.5H14V15.192C14 15.424 13.9233 15.6167 13.77 15.77C13.6167 15.9233 13.424 16 13.192 16H10.808C10.576 16 10.3833 15.9233 10.23 15.77C10.0767 15.6167 10 15.424 10 15.192V14.5H4V18.385C4 18.5383 4.064 18.6793 4.192 18.808C4.32067 18.936 4.46167 19 4.615 19H19.385C19.5383 19 19.6793 18.936 19.808 18.808C19.936 18.6793 20 18.5383 20 18.385V14.5ZM11 15H13V13H11V15ZM4 13.5H10V12.808C10 12.576 10.0767 12.3833 10.23 12.23C10.3833 12.0767 10.576 12 10.808 12H13.192C13.424 12 13.6167 12.0767 13.77 12.23C13.9233 12.3833 14 12.576 14 12.808V13.5H20V8.615C20 8.46167 19.936 8.32067 19.808 8.192C19.6793 8.064 19.5383 8 19.385 8H4.615C4.46167 8 4.32067 8.064 4.192 8.192C4.064 8.32067 4 8.46167 4 8.615V13.5Z" fill="white"/>
</svg>
