<svg width="69" height="69" viewBox="0 0 69 69" fill="none" xmlns="http://www.w3.org/2000/svg">
<circle cx="33.5" cy="33.5" r="26.5" fill="black"/>
<path d="M34.3419 0C15.3752 0 0 15.3752 0 34.3419C0 53.3087 15.3752 68.6839 34.3419 68.6839C53.3087 68.6839 68.6839 53.3087 68.6839 34.3419C68.6839 15.3752 53.3087 0 34.3419 0ZM25.9353 48.576H18.9811V26.1965H25.9353V48.576ZM22.4153 23.4491C20.2188 23.4491 18.7986 21.893 18.7986 19.9684C18.7986 18.0045 20.2617 16.4949 22.5047 16.4949C24.7477 16.4949 26.1213 18.0045 26.1643 19.9684C26.1643 21.893 24.7477 23.4491 22.4153 23.4491ZM51.3341 48.576H44.3798V36.1735C44.3798 33.2866 43.371 31.3263 40.8562 31.3263C38.9352 31.3263 37.794 32.6535 37.2896 33.9306C37.1036 34.3849 37.0571 35.0288 37.0571 35.6691V48.5724H30.0993V33.3332C30.0993 30.5393 30.0099 28.2033 29.9168 26.1929H35.9589L36.2773 29.3016H36.4168C37.3326 27.842 39.5755 25.6885 43.3281 25.6885C47.9034 25.6885 51.3341 28.7542 51.3341 35.3436V48.576V48.576Z" fill="white"/>
</svg>
