<svg width="165" height="35" viewBox="0 0 165 35" fill="none" xmlns="http://www.w3.org/2000/svg">
<path d="M18.3438 9.617L21.1891 6.77174C21.9129 6.04787 23.0865 6.04787 23.8104 6.77174L26.9778 9.93918C27.7017 10.663 27.7017 11.8367 26.9778 12.5605L24.1381 15.4003C23.4142 16.1242 22.2406 16.1242 21.5167 15.4003L18.3438 12.2274C17.9976 11.8812 17.5282 11.6867 17.0386 11.6867C16.5491 11.6867 16.0796 11.8812 15.7334 12.2274L12.6697 15.2911C11.9459 16.0149 10.7723 16.0149 10.0484 15.2911L7.20862 12.4513C6.48475 11.7274 6.48475 10.5538 7.20862 9.82996L10.2668 6.77174C10.9907 6.04788 12.1643 6.04787 12.8882 6.77173L15.7334 9.617C16.0796 9.96316 16.5491 10.1576 17.0386 10.1576C17.5282 10.1576 17.9976 9.96316 18.3438 9.617Z" fill="black"/>
<path d="M15.5094 21.4073L12.3419 18.2398C11.6181 17.516 10.4445 17.516 9.7206 18.2398L6.7716 21.1888C6.04774 21.9127 6.04774 23.0863 6.7716 23.8102L15.7278 32.7664C16.4517 33.4903 17.6253 33.4903 18.3492 32.7664L27.0869 24.0286C27.8108 23.3048 27.8108 22.1312 27.0869 21.4073L23.9195 18.2398C23.1956 17.516 22.022 17.516 21.2982 18.2398L18.1307 21.4073C17.4069 22.1312 16.2332 22.1312 15.5094 21.4073Z" fill="black"/>
<path d="M52.1094 9.69857V25.5386H47.5254L42.6054 16.9706L41.4054 14.6186H41.3814L41.4774 17.5466V25.5386H37.8294V9.69857H42.4134L47.3334 18.2666L48.5334 20.6186H48.5574L48.4614 17.6906V9.69857H52.1094ZM57.3705 12.1466C56.5385 12.1466 55.9305 11.9946 55.5465 11.6906C55.1785 11.3706 54.9945 10.8746 54.9945 10.2026C54.9945 9.51457 55.1785 9.01857 55.5465 8.71457C55.9305 8.39457 56.5385 8.23457 57.3705 8.23457C58.1865 8.23457 58.7865 8.39457 59.1705 8.71457C59.5545 9.01857 59.7465 9.51457 59.7465 10.2026C59.7465 10.8746 59.5545 11.3706 59.1705 11.6906C58.7865 11.9946 58.1865 12.1466 57.3705 12.1466ZM59.4105 13.5386V25.5386H55.3305V13.5386H59.4105ZM68.0028 13.2986C69.2188 13.2986 70.2268 13.4746 71.0268 13.8266C71.8428 14.1626 72.4748 14.6186 72.9228 15.1946C73.3868 15.7546 73.6748 16.3626 73.7868 17.0186L70.0188 18.2666C69.9068 17.5786 69.6988 17.0666 69.3948 16.7306C69.1068 16.3786 68.6828 16.2026 68.1228 16.2026C67.6108 16.2026 67.1788 16.3226 66.8268 16.5626C66.4908 16.7866 66.2348 17.1546 66.0588 17.6666C65.8828 18.1626 65.7948 18.8026 65.7948 19.5866C65.7948 20.3706 65.8908 21.0106 66.0828 21.5066C66.2748 21.9866 66.5468 22.3386 66.8988 22.5626C67.2508 22.7706 67.6668 22.8746 68.1468 22.8746C68.5468 22.8746 68.8748 22.8026 69.1308 22.6586C69.4028 22.4986 69.6268 22.2746 69.8028 21.9866C69.9788 21.6986 70.0908 21.3466 70.1388 20.9306L73.8108 22.1066C73.6988 22.8106 73.3948 23.4426 72.8988 24.0026C72.4188 24.5466 71.7788 24.9786 70.9788 25.2986C70.1788 25.6186 69.2428 25.7786 68.1708 25.7786C66.8588 25.7786 65.7148 25.5386 64.7388 25.0586C63.7628 24.5626 63.0108 23.8506 62.4828 22.9226C61.9548 21.9786 61.6908 20.8506 61.6908 19.5386C61.6908 18.2266 61.9548 17.1066 62.4828 16.1786C63.0108 15.2346 63.7468 14.5226 64.6908 14.0426C65.6508 13.5466 66.7548 13.2986 68.0028 13.2986ZM89.108 13.5386L83.348 19.6826L82.58 19.8986L79.148 23.7386L79.124 19.5626L84.572 13.5386H89.108ZM80.012 8.45057V25.5386H75.932V8.45057H80.012ZM83.972 17.1386L89.372 25.5386H84.86L81.308 19.5386L83.972 17.1386ZM98.0809 25.7786C97.0409 25.7786 96.1049 25.5306 95.2729 25.0346C94.4409 24.5386 93.7849 23.8266 93.3049 22.8986C92.8409 21.9546 92.6089 20.8346 92.6089 19.5386C92.6089 18.2106 92.8569 17.0826 93.3529 16.1546C93.8489 15.2266 94.5209 14.5226 95.3689 14.0426C96.2169 13.5466 97.1529 13.2986 98.1769 13.2986C99.2969 13.2986 100.249 13.5946 101.033 14.1866C101.833 14.7786 102.369 15.6026 102.641 16.6586L102.497 16.7546V8.01857H103.697V25.5386H102.617L102.545 22.2026L102.689 22.1546C102.545 22.9226 102.249 23.5786 101.801 24.1226C101.369 24.6666 100.825 25.0826 100.169 25.3706C99.5289 25.6426 98.8329 25.7786 98.0809 25.7786ZM98.2249 24.7226C99.0729 24.7226 99.8169 24.5146 100.457 24.0986C101.097 23.6666 101.593 23.0506 101.945 22.2506C102.313 21.4506 102.497 20.5146 102.497 19.4426C102.497 18.3866 102.313 17.4826 101.945 16.7306C101.593 15.9626 101.097 15.3786 100.457 14.9786C99.8329 14.5626 99.1049 14.3546 98.2729 14.3546C96.8969 14.3546 95.8089 14.8186 95.0089 15.7466C94.2089 16.6746 93.8089 17.9386 93.8089 19.5386C93.8089 21.1386 94.2009 22.4026 94.9849 23.3306C95.7849 24.2586 96.8649 24.7226 98.2249 24.7226ZM112.875 25.7786C111.771 25.7786 110.787 25.5306 109.923 25.0346C109.059 24.5386 108.379 23.8266 107.883 22.8986C107.403 21.9546 107.163 20.8346 107.163 19.5386C107.163 18.2426 107.403 17.1306 107.883 16.2026C108.379 15.2586 109.043 14.5386 109.875 14.0426C110.707 13.5466 111.659 13.2986 112.731 13.2986C113.819 13.2986 114.747 13.5386 115.515 14.0186C116.283 14.4986 116.875 15.1706 117.291 16.0346C117.707 16.8826 117.915 17.8666 117.915 18.9866C117.915 19.1306 117.907 19.2746 117.891 19.4186C117.891 19.5466 117.883 19.6666 117.867 19.7786H107.907V18.6986H117.339L116.739 18.8666C116.723 17.4906 116.355 16.3946 115.635 15.5786C114.931 14.7626 113.955 14.3546 112.707 14.3546C111.843 14.3546 111.083 14.5626 110.427 14.9786C109.771 15.3786 109.259 15.9706 108.891 16.7546C108.523 17.5226 108.339 18.4506 108.339 19.5386C108.339 20.6106 108.523 21.5386 108.891 22.3226C109.275 23.1066 109.803 23.7066 110.475 24.1226C111.163 24.5226 111.955 24.7226 112.851 24.7226C113.779 24.7226 114.571 24.5226 115.227 24.1226C115.899 23.7226 116.419 23.1706 116.787 22.4666L117.747 23.0186C117.459 23.5946 117.075 24.0906 116.595 24.5066C116.115 24.9066 115.563 25.2186 114.939 25.4426C114.315 25.6666 113.627 25.7786 112.875 25.7786ZM125.394 25.7786C124.178 25.7786 123.098 25.5306 122.154 25.0346C121.226 24.5386 120.57 23.8266 120.186 22.8986L121.218 22.2026C121.506 23.0026 122.018 23.6266 122.754 24.0746C123.506 24.5066 124.418 24.7226 125.49 24.7226C126.546 24.7226 127.37 24.5146 127.962 24.0986C128.57 23.6826 128.874 23.1306 128.874 22.4426C128.874 21.9786 128.722 21.5786 128.418 21.2426C128.13 20.8906 127.578 20.6266 126.762 20.4506L123.954 19.8506C122.802 19.6106 121.978 19.2266 121.482 18.6986C121.002 18.1546 120.762 17.4986 120.762 16.7306C120.762 16.0906 120.954 15.5146 121.338 15.0026C121.722 14.4906 122.25 14.0826 122.922 13.7786C123.61 13.4586 124.41 13.2986 125.322 13.2986C126.522 13.2986 127.514 13.5386 128.298 14.0186C129.082 14.4826 129.634 15.1866 129.954 16.1306L128.946 16.7786C128.706 15.9306 128.258 15.3146 127.602 14.9306C126.962 14.5466 126.202 14.3546 125.322 14.3546C124.65 14.3546 124.058 14.4586 123.546 14.6666C123.05 14.8586 122.658 15.1306 122.37 15.4826C122.098 15.8186 121.962 16.2106 121.962 16.6586C121.962 17.1226 122.122 17.5466 122.442 17.9306C122.762 18.2986 123.33 18.5706 124.146 18.7466L127.026 19.3706C128.162 19.6106 128.954 19.9786 129.402 20.4746C129.85 20.9546 130.074 21.5546 130.074 22.2746C130.074 22.9946 129.882 23.6186 129.498 24.1466C129.114 24.6746 128.57 25.0826 127.866 25.3706C127.162 25.6426 126.338 25.7786 125.394 25.7786ZM134.032 11.2106C133.728 11.2106 133.48 11.1226 133.288 10.9466C133.112 10.7546 133.024 10.5066 133.024 10.2026C133.024 9.89857 133.112 9.65857 133.288 9.48257C133.48 9.29057 133.728 9.19457 134.032 9.19457C134.336 9.19457 134.576 9.29057 134.752 9.48257C134.944 9.65857 135.04 9.89857 135.04 10.2026C135.04 10.5066 134.944 10.7546 134.752 10.9466C134.576 11.1226 134.336 11.2106 134.032 11.2106ZM134.632 13.5386V25.5386H133.432V13.5386H134.632ZM148.829 11.3306L149.117 12.3866C149.101 12.3866 149.085 12.3866 149.069 12.3866C149.053 12.3866 149.029 12.3866 148.997 12.3866C148.213 12.3866 147.605 12.5946 147.173 13.0106C146.757 13.4106 146.549 13.9786 146.549 14.7146L145.781 14.3306C145.781 13.7226 145.909 13.1946 146.165 12.7466C146.421 12.2986 146.773 11.9546 147.221 11.7146C147.669 11.4586 148.173 11.3306 148.733 11.3306C148.765 11.3306 148.781 11.3306 148.781 11.3306C148.797 11.3306 148.813 11.3306 148.829 11.3306ZM145.037 24.3146C146.221 24.3146 147.149 24.5626 147.821 25.0586C148.493 25.5546 148.829 26.2186 148.829 27.0506C148.829 27.7866 148.581 28.4266 148.085 28.9706C147.605 29.5146 146.941 29.9386 146.093 30.2426C145.245 30.5466 144.277 30.6986 143.189 30.6986C141.381 30.6986 139.997 30.3866 139.037 29.7626C138.077 29.1546 137.597 28.3866 137.597 27.4586C137.597 26.7866 137.837 26.2026 138.317 25.7066C138.813 25.2106 139.533 24.9146 140.477 24.8186L140.381 25.0346C139.869 24.8906 139.413 24.6506 139.013 24.3146C138.629 23.9786 138.437 23.4986 138.437 22.8746C138.437 22.2026 138.685 21.6586 139.181 21.2426C139.693 20.8106 140.365 20.5626 141.197 20.4986L142.469 20.9306H141.965C141.229 20.9786 140.637 21.1626 140.189 21.4826C139.757 21.7866 139.541 22.1866 139.541 22.6826C139.541 23.2266 139.749 23.6346 140.165 23.9066C140.597 24.1786 141.141 24.3146 141.797 24.3146H145.037ZM143.189 29.6906C144.133 29.6906 144.941 29.5786 145.613 29.3546C146.285 29.1306 146.797 28.8266 147.149 28.4426C147.517 28.0746 147.701 27.6586 147.701 27.1946C147.701 26.6346 147.453 26.1866 146.957 25.8506C146.477 25.5146 145.741 25.3466 144.749 25.3466H141.341C140.589 25.3466 139.965 25.5226 139.469 25.8746C138.973 26.2266 138.725 26.6986 138.725 27.2906C138.725 28.0106 139.117 28.5866 139.901 29.0186C140.701 29.4666 141.797 29.6906 143.189 29.6906ZM143.021 13.2986C143.965 13.2986 144.797 13.4666 145.517 13.8026C146.253 14.1226 146.821 14.5786 147.221 15.1706C147.621 15.7466 147.821 16.4266 147.821 17.2106C147.821 17.9786 147.621 18.6666 147.221 19.2746C146.821 19.8666 146.253 20.3306 145.517 20.6666C144.797 20.9866 143.965 21.1466 143.021 21.1466C141.501 21.1466 140.309 20.7866 139.445 20.0666C138.597 19.3306 138.173 18.3786 138.173 17.2106C138.173 16.4266 138.373 15.7466 138.773 15.1706C139.189 14.5786 139.757 14.1226 140.477 13.8026C141.213 13.4666 142.061 13.2986 143.021 13.2986ZM143.021 14.2826C141.965 14.2826 141.101 14.5546 140.429 15.0986C139.757 15.6266 139.421 16.3306 139.421 17.2106C139.421 18.0906 139.757 18.8026 140.429 19.3466C141.101 19.8906 141.965 20.1626 143.021 20.1626C144.077 20.1626 144.933 19.8906 145.589 19.3466C146.261 18.8026 146.597 18.0906 146.597 17.2106C146.597 16.3306 146.261 15.6266 145.589 15.0986C144.933 14.5546 144.077 14.2826 143.021 14.2826ZM151.245 25.5386V13.5386H152.325L152.421 16.5386L152.229 16.3706C152.453 15.7146 152.789 15.1626 153.237 14.7146C153.685 14.2506 154.221 13.8986 154.845 13.6586C155.469 13.4186 156.141 13.2986 156.861 13.2986C157.757 13.2986 158.549 13.4666 159.237 13.8026C159.925 14.1386 160.461 14.6346 160.845 15.2906C161.245 15.9466 161.445 16.7706 161.445 17.7626V25.5386H160.245V18.1466C160.245 16.8346 159.917 15.8746 159.261 15.2666C158.621 14.6586 157.781 14.3546 156.741 14.3546C155.989 14.3546 155.285 14.5306 154.629 14.8826C153.989 15.2186 153.461 15.7146 153.045 16.3706C152.645 17.0266 152.445 17.8266 152.445 18.7706V25.5386H151.245Z" fill="black"/>
</svg>
