<svg width="185" height="78" viewBox="0 0 185 78" fill="none" xmlns="http://www.w3.org/2000/svg">
<path d="M0.0150352 22.3502H16.5312V26.8163C18.9749 23.4456 23.0197 21.339 28.3284 21.339C39.1145 21.339 45.5187 28.0803 45.5187 39.2877V66H28.0756V42.9111C28.0756 38.6135 26.306 36.4226 22.7669 36.4226C19.312 36.4226 17.4581 38.8663 17.4581 42.6583V66H0.0150352V22.3502ZM54.0803 66V22.3502H71.5233V66H54.0803ZM62.7597 1.705C68.0684 1.705 71.7761 5.4127 71.7761 10.4687C71.7761 15.5246 68.0684 19.0638 62.7597 19.0638C57.4509 19.0638 53.7432 15.5246 53.7432 10.4687C53.7432 5.4127 57.4509 1.705 62.7597 1.705ZM109.391 47.7985L120.261 57.6577C115.964 63.6406 109.307 67.0112 101.217 67.0112C87.7347 67.0112 77.4542 57.2363 77.4542 44.1751C77.4542 31.1138 87.6504 21.339 101.133 21.339C110.065 21.339 116.554 24.9624 120.514 32.2093L109.054 41.3943C107.959 39.1191 106.02 36.3383 102.06 36.3383C98.0151 36.3383 94.8973 39.4562 94.8973 44.1751C94.8973 48.894 98.1837 52.0118 102.228 52.0118C105.515 52.0118 108.127 49.9052 109.391 47.7985ZM125.097 5.49696H142.541V36.1698L152.484 22.3502H173.129L157.793 41.5628L174.14 66H153.916L143.889 49.9052L142.541 51.5905V66H125.097V5.49696ZM184.019 77.7972H181.913V0.441001H184.019V77.7972Z" fill="white"/>
</svg>
