<svg width="162" height="35" viewBox="0 0 162 35" fill="none" xmlns="http://www.w3.org/2000/svg">
<path d="M18.8438 9.617L21.6891 6.77174C22.4129 6.04787 23.5865 6.04787 24.3104 6.77174L27.4778 9.93918C28.2017 10.663 28.2017 11.8367 27.4778 12.5605L24.6381 15.4003C23.9142 16.1242 22.7406 16.1242 22.0167 15.4003L18.8438 12.2274C18.4976 11.8812 18.0282 11.6867 17.5386 11.6867C17.0491 11.6867 16.5796 11.8812 16.2334 12.2274L13.1697 15.2911C12.4459 16.0149 11.2723 16.0149 10.5484 15.2911L7.70862 12.4513C6.98475 11.7274 6.98475 10.5538 7.70862 9.82996L10.7668 6.77174C11.4907 6.04788 12.6643 6.04787 13.3882 6.77173L16.2334 9.617C16.5796 9.96316 17.0491 10.1576 17.5386 10.1576C18.0282 10.1576 18.4976 9.96316 18.8438 9.617Z" fill="black"/>
<path d="M16.0094 21.4073L12.8419 18.2398C12.1181 17.516 10.9445 17.516 10.2206 18.2398L7.2716 21.1888C6.54774 21.9127 6.54774 23.0863 7.2716 23.8102L16.2278 32.7664C16.9517 33.4903 18.1253 33.4903 18.8492 32.7664L27.5869 24.0286C28.3108 23.3048 28.3108 22.1312 27.5869 21.4073L24.4195 18.2398C23.6956 17.516 22.522 17.516 21.7982 18.2398L18.6307 21.4073C17.9069 22.1312 16.7332 22.1312 16.0094 21.4073Z" fill="black"/>
<path d="M52.3691 21.0026C52.0651 22.1066 51.5771 23.0186 50.9051 23.7386C50.2331 24.4426 49.4331 24.9626 48.5051 25.2986C47.5771 25.6186 46.5531 25.7786 45.4331 25.7786C43.8331 25.7786 42.4491 25.4586 41.2811 24.8186C40.1131 24.1626 39.2171 23.2266 38.5931 22.0106C37.9691 20.7946 37.6571 19.3306 37.6571 17.6186C37.6571 15.9066 37.9691 14.4426 38.5931 13.2266C39.2171 12.0106 40.1131 11.0826 41.2811 10.4426C42.4491 9.78657 43.8251 9.45857 45.4091 9.45857C46.5131 9.45857 47.5291 9.61857 48.4571 9.93857C49.3851 10.2426 50.1691 10.7146 50.8091 11.3546C51.4491 11.9946 51.9051 12.8186 52.1771 13.8266L48.5531 15.2906C48.3291 14.2986 47.9611 13.6186 47.4491 13.2506C46.9531 12.8826 46.3211 12.6986 45.5531 12.6986C44.8011 12.6986 44.1451 12.8826 43.5851 13.2506C43.0411 13.6186 42.6171 14.1706 42.3131 14.9066C42.0251 15.6266 41.8811 16.5306 41.8811 17.6186C41.8811 18.6906 42.0171 19.5946 42.2891 20.3306C42.5611 21.0666 42.9691 21.6186 43.5131 21.9866C44.0731 22.3546 44.7611 22.5386 45.5771 22.5386C46.3451 22.5386 46.9931 22.3306 47.5211 21.9146C48.0651 21.4826 48.4331 20.8266 48.6251 19.9466L52.3691 21.0026ZM61.0731 17.9306C61.0731 17.3706 60.9131 16.9306 60.5931 16.6106C60.2891 16.2746 59.8731 16.1066 59.3451 16.1066C58.8171 16.1066 58.3611 16.2426 57.9771 16.5146C57.6091 16.7706 57.3531 17.2346 57.2091 17.9066L53.7531 17.0906C53.9771 15.9386 54.5691 15.0186 55.5291 14.3306C56.4891 13.6426 57.8411 13.2986 59.5851 13.2986C60.7531 13.2986 61.7451 13.4746 62.5611 13.8266C63.3931 14.1626 64.0251 14.6746 64.4571 15.3626C64.9051 16.0346 65.1291 16.8666 65.1291 17.8586V22.2506C65.1291 22.8746 65.4091 23.1866 65.9691 23.1866C66.2571 23.1866 66.4891 23.1546 66.6651 23.0906L66.4251 25.4186C65.9451 25.6426 65.3611 25.7546 64.6731 25.7546C64.0491 25.7546 63.4971 25.6586 63.0171 25.4666C62.5371 25.2586 62.1611 24.9546 61.8891 24.5546C61.6171 24.1386 61.4811 23.6186 61.4811 22.9946V22.8506L61.9371 22.6826C61.9371 23.3706 61.7291 23.9466 61.3131 24.4106C60.9131 24.8746 60.3851 25.2186 59.7291 25.4426C59.0891 25.6666 58.4171 25.7786 57.7131 25.7786C56.8971 25.7786 56.1851 25.6506 55.5771 25.3946C54.9691 25.1386 54.4971 24.7706 54.1611 24.2906C53.8411 23.7946 53.6811 23.1866 53.6811 22.4666C53.6811 21.6026 53.9371 20.8906 54.4491 20.3306C54.9771 19.7546 55.8011 19.3546 56.9211 19.1306L61.4571 18.1946L61.4331 20.3546L59.1291 20.8346C58.6491 20.9306 58.2891 21.0746 58.0491 21.2666C57.8251 21.4426 57.7131 21.7146 57.7131 22.0826C57.7131 22.4346 57.8411 22.6986 58.0971 22.8746C58.3531 23.0506 58.6571 23.1386 59.0091 23.1386C59.2811 23.1386 59.5371 23.0986 59.7771 23.0186C60.0331 22.9386 60.2571 22.8186 60.4491 22.6586C60.6411 22.4826 60.7931 22.2666 60.9051 22.0106C61.0171 21.7546 61.0731 21.4506 61.0731 21.0986V17.9306ZM68.2755 30.5786V13.5386H71.9475L72.1635 17.8826L71.6835 17.3786C71.7955 16.5786 72.0435 15.8746 72.4275 15.2666C72.8115 14.6586 73.3075 14.1786 73.9155 13.8266C74.5235 13.4746 75.2195 13.2986 76.0035 13.2986C76.9955 13.2986 77.8595 13.5466 78.5955 14.0426C79.3315 14.5226 79.8995 15.2266 80.2995 16.1546C80.7155 17.0666 80.9235 18.1786 80.9235 19.4906C80.9235 20.8026 80.7155 21.9306 80.2995 22.8746C79.8835 23.8186 79.2995 24.5386 78.5475 25.0346C77.8115 25.5306 76.9475 25.7786 75.9555 25.7786C74.8675 25.7786 73.9875 25.4586 73.3155 24.8186C72.6435 24.1626 72.1955 23.3386 71.9715 22.3466L72.3555 21.7706V30.5786H68.2755ZM74.5635 22.7786C75.2675 22.7786 75.8195 22.5226 76.2195 22.0106C76.6195 21.4826 76.8195 20.6586 76.8195 19.5386C76.8195 18.4186 76.6195 17.6026 76.2195 17.0906C75.8355 16.5626 75.2915 16.2986 74.5875 16.2986C74.1395 16.2986 73.7475 16.4266 73.4115 16.6826C73.0755 16.9226 72.8115 17.2826 72.6195 17.7626C72.4435 18.2426 72.3555 18.8346 72.3555 19.5386C72.3555 20.2106 72.4355 20.7946 72.5955 21.2906C72.7715 21.7706 73.0275 22.1386 73.3635 22.3946C73.6995 22.6506 74.0995 22.7786 74.5635 22.7786ZM85.3624 12.1466C84.5304 12.1466 83.9224 11.9946 83.5384 11.6906C83.1704 11.3706 82.9864 10.8746 82.9864 10.2026C82.9864 9.51457 83.1704 9.01857 83.5384 8.71457C83.9224 8.39457 84.5304 8.23457 85.3624 8.23457C86.1784 8.23457 86.7784 8.39457 87.1624 8.71457C87.5464 9.01857 87.7384 9.51457 87.7384 10.2026C87.7384 10.8746 87.5464 11.3706 87.1624 11.6906C86.7784 11.9946 86.1784 12.1466 85.3624 12.1466ZM87.4024 13.5386V25.5386H83.3224V13.5386H87.4024ZM95.3228 9.72257V21.2666C95.3228 21.8426 95.4588 22.2586 95.7308 22.5146C96.0188 22.7546 96.4108 22.8746 96.9068 22.8746C97.2908 22.8746 97.6188 22.8346 97.8908 22.7546C98.1788 22.6586 98.4348 22.5226 98.6588 22.3466L99.0908 24.8666C98.6908 25.1546 98.1868 25.3786 97.5788 25.5386C96.9708 25.6986 96.3468 25.7786 95.7068 25.7786C94.7948 25.7786 94.0028 25.6506 93.3308 25.3946C92.6748 25.1386 92.1628 24.7306 91.7948 24.1706C91.4428 23.6106 91.2588 22.8666 91.2428 21.9386V10.8506L95.3228 9.72257ZM98.8988 13.5386V16.4426H89.1788V13.5386H98.8988ZM107.69 17.9306C107.69 17.3706 107.53 16.9306 107.21 16.6106C106.906 16.2746 106.49 16.1066 105.962 16.1066C105.434 16.1066 104.978 16.2426 104.594 16.5146C104.226 16.7706 103.97 17.2346 103.826 17.9066L100.37 17.0906C100.594 15.9386 101.186 15.0186 102.146 14.3306C103.106 13.6426 104.458 13.2986 106.202 13.2986C107.37 13.2986 108.362 13.4746 109.178 13.8266C110.01 14.1626 110.642 14.6746 111.074 15.3626C111.522 16.0346 111.746 16.8666 111.746 17.8586V22.2506C111.746 22.8746 112.026 23.1866 112.586 23.1866C112.874 23.1866 113.106 23.1546 113.282 23.0906L113.042 25.4186C112.562 25.6426 111.978 25.7546 111.29 25.7546C110.666 25.7546 110.114 25.6586 109.634 25.4666C109.154 25.2586 108.778 24.9546 108.506 24.5546C108.234 24.1386 108.098 23.6186 108.098 22.9946V22.8506L108.554 22.6826C108.554 23.3706 108.346 23.9466 107.93 24.4106C107.53 24.8746 107.002 25.2186 106.346 25.4426C105.706 25.6666 105.034 25.7786 104.33 25.7786C103.514 25.7786 102.802 25.6506 102.194 25.3946C101.586 25.1386 101.114 24.7706 100.778 24.2906C100.458 23.7946 100.298 23.1866 100.298 22.4666C100.298 21.6026 100.554 20.8906 101.066 20.3306C101.594 19.7546 102.418 19.3546 103.538 19.1306L108.074 18.1946L108.05 20.3546L105.746 20.8346C105.266 20.9306 104.906 21.0746 104.666 21.2666C104.442 21.4426 104.33 21.7146 104.33 22.0826C104.33 22.4346 104.458 22.6986 104.714 22.8746C104.97 23.0506 105.274 23.1386 105.626 23.1386C105.898 23.1386 106.154 23.0986 106.394 23.0186C106.65 22.9386 106.874 22.8186 107.066 22.6586C107.258 22.4826 107.41 22.2666 107.522 22.0106C107.634 21.7546 107.69 21.4506 107.69 21.0986V17.9306ZM118.925 8.45057V21.4586C118.925 21.9866 119.013 22.3626 119.189 22.5866C119.365 22.8106 119.661 22.9226 120.077 22.9226C120.317 22.9226 120.517 22.9066 120.677 22.8746C120.837 22.8426 121.029 22.7946 121.253 22.7306L120.989 25.1786C120.701 25.3546 120.325 25.4986 119.861 25.6106C119.397 25.7226 118.941 25.7786 118.493 25.7786C117.213 25.7786 116.285 25.4826 115.709 24.8906C115.133 24.2986 114.845 23.3306 114.845 21.9866V8.45057H118.925ZM136.115 10.8026H126.515V16.9226H134.123V18.0506H126.515V25.5386H125.315V9.69857H136.115V10.8026ZM142.648 13.2986C143.768 13.2986 144.752 13.5466 145.6 14.0426C146.464 14.5386 147.136 15.2586 147.616 16.2026C148.112 17.1306 148.36 18.2426 148.36 19.5386C148.36 20.8346 148.112 21.9546 147.616 22.8986C147.136 23.8266 146.464 24.5386 145.6 25.0346C144.752 25.5306 143.768 25.7786 142.648 25.7786C141.528 25.7786 140.536 25.5306 139.672 25.0346C138.824 24.5386 138.152 23.8266 137.656 22.8986C137.176 21.9546 136.936 20.8346 136.936 19.5386C136.936 18.2426 137.176 17.1306 137.656 16.2026C138.152 15.2586 138.824 14.5386 139.672 14.0426C140.536 13.5466 141.528 13.2986 142.648 13.2986ZM142.648 14.3306C141.736 14.3306 140.944 14.5386 140.272 14.9546C139.6 15.3706 139.072 15.9706 138.688 16.7546C138.32 17.5226 138.136 18.4506 138.136 19.5386C138.136 20.6106 138.32 21.5386 138.688 22.3226C139.072 23.1066 139.6 23.7066 140.272 24.1226C140.944 24.5386 141.736 24.7466 142.648 24.7466C143.56 24.7466 144.352 24.5386 145.024 24.1226C145.696 23.7066 146.216 23.1066 146.584 22.3226C146.968 21.5386 147.16 20.6106 147.16 19.5386C147.16 18.4506 146.968 17.5226 146.584 16.7546C146.216 15.9706 145.696 15.3706 145.024 14.9546C144.352 14.5386 143.56 14.3306 142.648 14.3306ZM151.492 13.5386L155.5 18.7466L155.62 18.9146L160.708 25.5386H159.196L154.876 19.9466L154.732 19.7546L149.956 13.5386H151.492ZM160.348 13.5386L155.692 19.6586L155.548 19.7546L151.156 25.5386H149.716L154.852 18.8906L154.948 18.8426L158.908 13.5386H160.348Z" fill="black"/>
</svg>
