<svg width="53" height="53" viewBox="0 0 53 53" fill="none" xmlns="http://www.w3.org/2000/svg">
<path d="M26.0937 0.0797119C11.6824 0.0797119 0 11.7621 0 26.1734C0 40.5847 11.6824 52.2671 26.0937 52.2671C40.505 52.2671 52.1874 40.5847 52.1874 26.1734C52.1874 11.7621 40.505 0.0797119 26.0937 0.0797119ZM19.7062 36.9887H14.4222V19.9843H19.7062V36.9887ZM17.0316 17.8968C15.3627 17.8968 14.2836 16.7144 14.2836 15.2521C14.2836 13.7599 15.3953 12.6128 17.0995 12.6128C18.8038 12.6128 19.8475 13.7599 19.8801 15.2521C19.8801 16.7144 18.8038 17.8968 17.0316 17.8968ZM39.0046 36.9887H33.7206V27.5651C33.7206 25.3716 32.9541 23.882 31.0433 23.882C29.5837 23.882 28.7166 24.8905 28.3334 25.8608C28.192 26.206 28.1567 26.6953 28.1567 27.1818V36.986H22.87V25.4069C22.87 23.2841 22.8021 21.5091 22.7314 19.9816H27.3223L27.5642 22.3436H27.6702C28.366 21.2346 30.0702 19.5983 32.9215 19.5983C36.398 19.5983 39.0046 21.9277 39.0046 26.9345V36.9887Z" fill="#000"/>
</svg>
